<?xml version="1.0" standalone="no"?>
<!DOCTYPE svg PUBLIC "-//W3C//DTD SVG 1.1//EN" "http://www.w3.org/Graphics/SVG/1.1/DTD/svg11.dtd" >
<svg xmlns="http://www.w3.org/2000/svg">
<metadata></metadata>
<defs>
<font id="grotesque_mt_stdregular" horiz-adv-x="1216" >
<font-face units-per-em="2048" ascent="1477" descent="-571" />
<missing-glyph horiz-adv-x="491" />
<glyph unicode="&#xfb01;" d="M82 868v144h162q2 171 20 246.5t72 132.5q105 108 313 108q72 0 131.5 -12.5t99 -31t70.5 -48.5t47.5 -54.5t29.5 -60t17 -54.5t9 -48h-172q-12 85 -69.5 130.5t-152.5 45.5q-126 0 -184.5 -62t-58.5 -194v-98h250v-144h-250v-868h-172v868h-162zM881 0v1012h172v-1012 h-172z" />
<glyph unicode="&#xfb02;" d="M84 868v144h162v78q0 217 96 313t313 96q72 0 105 -10q58 -12 63 -12h228v-1477h-172v1174q0 88 -58.5 140t-158.5 52q-244 0 -244 -217v-137h250v-144h-250v-868h-172v868h-162z" />
<glyph horiz-adv-x="2048" />
<glyph horiz-adv-x="2048" />
<glyph unicode="&#xd;" horiz-adv-x="2048" />
<glyph unicode=" "  horiz-adv-x="491" />
<glyph unicode="&#x09;" horiz-adv-x="491" />
<glyph unicode="&#xa0;" horiz-adv-x="491" />
<glyph unicode="!" horiz-adv-x="555" d="M176 0v258h199v-258h-199zM180 1483h201l-35 -1059h-141z" />
<glyph unicode="&#x22;" horiz-adv-x="980" d="M164 1231v246h201v-246l-62 -285h-78zM616 1231v246h201v-246l-61 -285h-78z" />
<glyph unicode="#" horiz-adv-x="1368" d="M86 350v144h219l72 350h-291v143h320l86 397h143l-86 -397h401l84 397h144l-86 -397h190v-143h-217l-74 -350h291v-144h-317l-84 -395h-146l86 395h-403l-82 -395h-143l81 395h-188zM449 496h401l72 348h-402z" />
<glyph unicode="$" d="M113 375h192q21 -219 246 -252v524q-50 21 -77.5 33t-74 36t-73 43.5t-60 50.5t-51 62t-30.5 73.5t-13 90.5q0 108 53 190.5t154 127.5q62 28 174 41v86h137v-86q88 -15 150.5 -38.5t115.5 -65.5t83.5 -111t39.5 -166h-182q-12 103 -57.5 152t-149.5 71v-440 q50 -23 80.5 -38t79.5 -43t79.5 -51.5t67 -59t57.5 -71t35.5 -82.5t14.5 -98q0 -110 -58.5 -199.5t-162.5 -140.5q-41 -20 -80.5 -30t-112.5 -19v-198h-137v200q-121 13 -194.5 44.5t-135.5 94.5q-51 54 -74 109t-36 160zM350 1073q0 -68 43 -114.5t160 -104.5v387 q-94 -9 -148.5 -54t-54.5 -114zM690 119q106 14 167 72t61 147q0 76 -50 130.5t-178 119.5v-469z" />
<glyph unicode="%" horiz-adv-x="1748" d="M145 1124q0 173 81 281t210 108q127 0 207 -108.5t80 -280.5q0 -171 -79.5 -280t-205.5 -109q-132 0 -212.5 107t-80.5 282zM303 1141q0 -148 32 -218.5t99 -70.5q63 0 97 69t34 199q0 277 -129 277q-63 0 -98 -66.5t-35 -189.5zM438 -86l770 1604h103l-766 -1604h-107z M1026 311q0 171 81 277t212 106q122 0 203.5 -113t81.5 -282q0 -164 -81.5 -273.5t-203.5 -109.5q-133 0 -213 107t-80 288zM1180 330q0 -299 133 -299q65 0 100 70.5t35 199.5q0 130 -34.5 203.5t-96.5 73.5q-66 0 -101.5 -64.5t-35.5 -183.5z" />
<glyph unicode="&#x26;" horiz-adv-x="1323" d="M115 393q0 55 15 106t36.5 89t57.5 75t65.5 60.5t73.5 50t68.5 38.5t62.5 30q-66 166 -66 260q0 138 69.5 223.5t182.5 85.5q103 0 172.5 -79t69.5 -197q0 -116 -88 -224q-31 -36 -58.5 -58t-81.5 -54q138 -257 240 -410q47 80 68 139.5t34 157.5l129 -82 q-19 -104 -51.5 -183.5t-87.5 -152.5q108 -125 193 -125q13 0 57 7l16 -160q-70 -15 -100 -15q-77 0 -138.5 35t-138.5 125q-57 -57 -121 -94t-120.5 -50t-83.5 -16.5t-51 -3.5q-175 0 -299.5 124.5t-124.5 297.5zM279 395q0 -110 85 -190t203 -80q69 0 129.5 28.5 t130.5 94.5q-74 108 -114.5 174.5t-106.5 187.5l-55 103q-37 -21 -56.5 -32t-53 -33t-52.5 -38.5t-43 -42t-36.5 -50t-21.5 -56t-9 -66.5zM571 1139q0 -50 14.5 -94t55.5 -132q75 50 107 98.5t32 114.5q0 60 -28.5 100t-71.5 40q-48 0 -78.5 -35t-30.5 -92z" />
<glyph unicode="'" horiz-adv-x="555" d="M178 1231v246h201v-246l-62 -285h-77z" />
<glyph unicode="(" horiz-adv-x="768" d="M152 580q0 125 28.5 271.5t79.5 272.5q101 249 358 404v-185q-69 -67 -101 -112.5t-66 -122.5q-107 -238 -107 -545q0 -303 109 -545q33 -73 64 -116.5t99 -108.5v-186q-88 57 -131.5 94t-89.5 92q-243 295 -243 787z" />
<glyph unicode=")" horiz-adv-x="768" d="M150 -209q68 67 100.5 113t66.5 123q107 238 107 544q0 303 -109 545q-33 73 -64 116.5t-99 108.5v187q87 -57 131 -94t90 -93q243 -295 243 -786q0 -125 -28.5 -272t-79.5 -273q-101 -248 -358 -403v184z" />
<glyph unicode="*" horiz-adv-x="980" d="M123 1079v164l317 -53l-204 237l143 86l108 -294l113 292l143 -81l-213 -242l330 57v-168l-330 60l215 -258l-147 -82l-113 309l-108 -313l-146 86l209 258z" />
<glyph unicode="+" horiz-adv-x="1366" d="M135 588v157h467v469h158v-469h471v-157h-471v-467h-158v467h-467z" />
<glyph unicode="," horiz-adv-x="555" d="M176 -248q51 59 66.5 113t13.5 135h-76v262h201v-272q0 -101 -43.5 -184t-122.5 -134z" />
<glyph unicode="-" horiz-adv-x="768" d="M102 424v168h566v-168h-566z" />
<glyph unicode="." horiz-adv-x="555" d="M178 0v262h201v-262h-201z" />
<glyph unicode="/" horiz-adv-x="661" d="M72 -348l381 1843h139l-381 -1843h-139z" />
<glyph unicode="0" horiz-adv-x="980" d="M53 715q0 146 28 271.5t82.5 222t141.5 151.5t197 55q33 0 67.5 -7t77.5 -27.5t82 -52.5t76.5 -87t64.5 -125t43.5 -172.5t16.5 -224.5q0 -150 -21 -272t-52 -198.5t-76.5 -133t-84.5 -84t-85 -43.5t-69.5 -18.5t-47.5 -2.5q-29 0 -59.5 5t-75.5 24t-85 49.5t-81.5 88 t-71.5 133.5t-49 191.5t-19 256.5zM244 707q0 -281 64.5 -437.5t180.5 -156.5q122 0 185 158t63 462q0 255 -62 396t-175 141q-121 0 -188.5 -148.5t-67.5 -414.5z" />
<glyph unicode="1" horiz-adv-x="980" d="M182 936v168q51 24 90.5 49.5t110 92.5t149.5 167h123v-1413h-184v1118q-91 -74 -149.5 -111t-139.5 -71z" />
<glyph unicode="2" horiz-adv-x="980" d="M57 0q3 47 10.5 90t17 77.5t28.5 70.5t33.5 61t43.5 57.5t47.5 52t57 52.5t60 51t67.5 55q47 38 68.5 56.5t58.5 50.5t54 50.5t42 47.5t36.5 51t24 51t17 58.5t4.5 62.5q0 128 -61.5 199.5t-171.5 71.5q-106 0 -171 -67t-65 -177q0 -49 12.5 -90.5t46.5 -108.5l-137 -75 q-49 85 -67.5 143.5t-18.5 132.5q0 176 114 284.5t298 108.5q183 0 300.5 -114.5t117.5 -292.5q0 -58 -11 -110.5t-26.5 -92t-46.5 -81.5t-54 -68.5t-67.5 -63t-70 -55t-75.5 -54.5q-88 -62 -140 -102t-86.5 -77.5t-49.5 -59.5t-43 -70h653v-176h-850z" />
<glyph unicode="3" horiz-adv-x="980" d="M57 330q0 61 37 182l150 -66q-19 -64 -19 -98q0 -106 68 -168.5t182 -62.5q110 0 178 74.5t68 197.5q0 60 -16 108t-38.5 78.5t-59.5 52.5t-67 32.5t-74 16t-67.5 6.5t-58.5 1v145q35 1 79.5 -1t92 9.5t86.5 31.5t64.5 65t25.5 110q0 106 -57.5 165t-161.5 59 q-78 0 -136.5 -44.5t-58.5 -105.5q0 -22 13 -69l-154 -68q-24 79 -24 121q0 132 117 224.5t286 92.5q158 0 264.5 -103t106.5 -255q0 -58 -17.5 -107t-39.5 -79.5t-59 -58t-59.5 -39.5t-56.5 -27q132 -42 203.5 -133t71.5 -224q0 -183 -129.5 -302.5t-327.5 -119.5 q-178 0 -295 102t-117 257z" />
<glyph unicode="4" horiz-adv-x="980" d="M66 326v235l526 854h156v-936h167v-153h-167v-326h-181v326h-501zM184 479h383v621z" />
<glyph unicode="5" horiz-adv-x="980" d="M74 350l162 53q3 -29 5.5 -47.5t9.5 -51t16.5 -54t26.5 -48t39.5 -42t55.5 -26.5t74 -11q117 0 184.5 93.5t67.5 256.5q0 152 -62 237t-172 85q-74 0 -124.5 -39t-94.5 -131l-145 51l55 713h657v-177h-522l-26 -354q116 94 247 94q167 0 273 -129t106 -334 q0 -235 -121 -379.5t-319 -144.5q-172 0 -275 101t-118 284z" />
<glyph unicode="6" horiz-adv-x="980" d="M63 662q0 755 461 755q46 0 86 -7.5t70 -18t57 -30t44.5 -35t35 -43t26.5 -43.5t20 -46t14.5 -41.5t11.5 -38.5l-170 -49q-55 192 -211 192q-45 0 -81 -15.5t-60.5 -40t-43 -63.5t-29 -76t-17.5 -88t-10 -90t-5 -91q62 77 129 111t158 34q163 0 267 -127.5t104 -327.5 q0 -241 -110 -379.5t-302 -138.5q-157 0 -270 113q-97 94 -136 224.5t-39 359.5zM276 473q0 -166 61 -263t165 -97q101 0 162 92.5t61 247.5q0 159 -55 248.5t-152 89.5q-107 0 -174.5 -88.5t-67.5 -229.5z" />
<glyph unicode="7" horiz-adv-x="980" d="M78 1237v162h827v-152q-53 -92 -80 -148t-67 -157q-69 -173 -114 -311t-68 -256t-31.5 -187.5t-18.5 -187.5h-194q25 193 46 294.5t66 240.5q112 360 293 702h-659z" />
<glyph unicode="8" horiz-adv-x="980" d="M47 371q0 182 139 291q36 29 71.5 44t104.5 33l-31.5 13.5t-36 17t-41 22t-39.5 27t-39 34t-33 40.5t-28 49t-17 57.5t-7 67.5q0 152 116.5 252t293.5 100q169 0 285 -100.5t116 -249.5q0 -44 -12 -84t-29 -69t-44.5 -56.5t-49.5 -44t-54.5 -34t-48 -24.5t-40.5 -18 q72 -18 108.5 -33t71.5 -42q133 -106 133 -304q0 -172 -128 -281.5t-329 -109.5q-188 0 -310 113.5t-122 288.5zM246 393q0 -130 66.5 -207t179.5 -77q112 0 179.5 77t67.5 203q0 122 -69 197.5t-183 75.5q-101 0 -171 -77.5t-70 -191.5zM279 1042q0 -97 59.5 -163 t148.5 -66q97 0 158.5 65t61.5 166t-59.5 165.5t-151.5 64.5t-154.5 -66.5t-62.5 -165.5z" />
<glyph unicode="9" horiz-adv-x="980" d="M59 932q0 212 118.5 347.5t301.5 135.5q34 0 69.5 -6.5t80.5 -26.5t84.5 -51t78.5 -85t67 -123.5t45.5 -171.5t17.5 -224q0 -242 -44 -395t-141 -252q-110 -113 -297 -113q-74 0 -134.5 23t-95.5 52.5t-64.5 76.5t-41 74.5t-24.5 68.5l178 72q34 -114 78 -156.5 t129 -42.5q45 0 81.5 18t60 44t42 67.5t28 77t16 84.5t8.5 76.5t4 66.5q-138 -129 -283 -129q-159 0 -261 138t-102 354zM258 942q0 -166 58.5 -258t162.5 -92q100 0 163 91.5t63 238.5q0 150 -65.5 249t-164.5 99q-98 0 -157.5 -90t-59.5 -238z" />
<glyph unicode=":" horiz-adv-x="555" d="M176 0v260h203v-260h-203zM176 752v262h203v-262h-203z" />
<glyph unicode=";" horiz-adv-x="555" d="M174 -248q49 57 65.5 106t18.5 142h-78v262h203v-227q0 -180 -92 -295q-22 -30 -76 -68zM180 756v262h201v-262h-201z" />
<glyph unicode="&#x3c;" horiz-adv-x="1366" d="M135 596v143l1094 459v-170l-881 -360l881 -361v-170z" />
<glyph unicode="=" horiz-adv-x="1366" d="M135 354v158h1096v-158h-1096zM135 827v158h1096v-158h-1096z" />
<glyph unicode="&#x3e;" horiz-adv-x="1366" d="M135 137v170l883 359l-883 360v172l1094 -461v-141z" />
<glyph unicode="?" horiz-adv-x="1087" d="M133 1116q8 113 33.5 179.5t83.5 123.5q113 113 303 113q170 0 286.5 -115t116.5 -284q0 -112 -59.5 -213t-191.5 -215q-75 -65 -97 -111.5t-22 -142.5h-160q1 68 8.5 119t17.5 83t34.5 66t41 51.5t56.5 54.5q89 83 133.5 150.5t44.5 157.5q0 97 -65.5 164t-159.5 67 q-231 0 -238 -336zM403 0v256h201v-256h-201z" />
<glyph unicode="@" horiz-adv-x="2078" d="M92 469q0 88 15 181t50 194.5t87 193.5t132.5 176t179.5 145.5t234 97.5t291 36q172 0 317 -47.5t242.5 -125.5t166 -179t99.5 -205t31 -207q0 -127 -37 -244.5t-99 -204.5t-139.5 -152t-160.5 -98.5t-160 -33.5q-103 0 -147 37t-51 131q-68 -78 -148 -122t-155 -44 q-158 0 -262.5 128.5t-104.5 324.5q0 85 25.5 175t73.5 171t110.5 145.5t143.5 102.5t165 38q92 0 169.5 -47.5t133.5 -136.5l33 156h180l-159 -742q-15 -71 -15 -86q0 -27 21 -46t51 -19q32 0 79.5 24t100.5 72.5t98 113t75 156t30 189.5q0 134 -54.5 251t-149 200.5 t-228 131.5t-285.5 48q-177 0 -331.5 -65.5t-264 -179.5t-172.5 -274.5t-63 -343.5q0 -364 228 -566t638 -202q111 0 210.5 18t173.5 47.5t137 70t104.5 81t72.5 84.5h183q-9 -17 -19 -34t-47.5 -65.5t-80 -89t-117.5 -91t-159 -85.5t-205 -59t-255 -24q-473 0 -742.5 239.5 t-269.5 659.5zM657 434q0 -129 62 -209t160 -80q80 0 162.5 66t139 184t56.5 250q0 133 -63.5 212t-169.5 79q-87 0 -168 -71.5t-130 -188.5t-49 -242z" />
<glyph unicode="A" horiz-adv-x="1748" d="M139 0l647 1477h181l645 -1477h-205l-158 356h-745l-158 -356h-207zM582 539h587l-292 673z" />
<glyph unicode="B" horiz-adv-x="1429" d="M207 0v1477h588q206 0 333 -95t127 -249q0 -67 -25 -123.5t-56.5 -90t-80.5 -63t-76 -40.5t-63 -23q106 -26 168 -60t109 -92q76 -91 76 -223q0 -186 -125.5 -302t-327.5 -116h-647zM410 172h340q166 0 256 66.5t90 189.5q0 135 -84.5 206t-245.5 71h-356v-533zM410 879 h319q311 0 311 223q0 101 -71 153t-209 52h-350v-428z" />
<glyph unicode="C" horiz-adv-x="1536" d="M141 694q0 241 87 427t244.5 288t361.5 102q117 0 215 -32.5t156 -76.5t101.5 -100t60.5 -93t24 -66l-156 -133q-12 33 -19.5 51.5t-26.5 56.5t-37.5 62t-49.5 55t-66 48.5t-84 30.5t-106 13q-218 0 -353 -164.5t-135 -431.5q0 -114 21 -207.5t53.5 -154.5t78 -107.5 t88.5 -71t91.5 -39t81 -18.5t62.5 -4q183 0 315 129q34 32 55.5 64.5t52.5 95.5l140 -146q-18 -31 -30.5 -50.5t-41 -57.5t-56.5 -63t-73.5 -56.5t-95 -50t-117.5 -32t-145 -13.5q-133 0 -242.5 35.5t-180 89.5t-124 129t-81 144t-44.5 144.5t-21 120.5t-4 82z" />
<glyph unicode="D" horiz-adv-x="1642" d="M244 0v1477h551q301 0 465 -164q107 -104 164 -253t57 -321q0 -344 -176.5 -541.5t-485.5 -197.5h-575zM446 182h367q212 0 332.5 145.5t120.5 401.5q0 150 -41 269t-119 192q-109 106 -309 106h-351v-1114z" />
<glyph unicode="E" d="M186 0v1477h920l-55 -174h-664v-453h608v-176h-608v-498h666l59 -176h-926z" />
<glyph unicode="F" d="M209 0v1477h921l-79 -183h-639v-452h546v-183h-546v-659h-203z" />
<glyph unicode="G" horiz-adv-x="1642" d="M172 686q0 383 196 605t537 222q161 0 295 -75t215 -189l-119 -164q-72 115 -175.5 179.5t-225.5 64.5q-238 0 -373 -167.5t-135 -463.5q0 -268 134 -418.5t372 -150.5q75 0 137.5 16.5t108.5 47t73.5 56t57.5 60.5v240h-576v182h779v-485q-44 -59 -71 -87.5t-67 -58.5 q-94 -72 -210 -111.5t-236 -39.5q-325 0 -521 201t-196 536z" />
<glyph unicode="H" horiz-adv-x="1536" d="M199 0v1477h202v-627h736v627h202v-1477h-202v670h-736v-670h-202z" />
<glyph unicode="I" horiz-adv-x="661" d="M229 0v1477h203v-1477h-203z" />
<glyph unicode="J" horiz-adv-x="1214" d="M135 358q0 72 6 152l199 127q-23 -161 -23 -221q0 -132 63 -207.5t173 -75.5q106 0 162.5 70t56.5 200v1074h203v-1106q0 -195 -112.5 -307.5t-307.5 -112.5q-77 0 -141.5 18.5t-107 47.5t-75 68t-50 77t-29 79t-14.5 68t-3 49z" />
<glyph unicode="K" horiz-adv-x="1429" d="M211 0v1477h203v-676l653 676h262l-522 -537l536 -940h-221l-454 797l-254 -265v-532h-203z" />
<glyph unicode="L" d="M205 0v1477h203v-1301h706v-176h-909z" />
<glyph unicode="M" horiz-adv-x="1748" d="M193 0v1477h315l369 -1203l366 1203h313v-1477h-182v1313l-399 -1313h-199l-401 1313v-1313h-182z" />
<glyph unicode="N" horiz-adv-x="1536" d="M205 0v1477h272l651 -1151v1151h203v-1477h-241l-684 1204v-1204h-201z" />
<glyph unicode="O" horiz-adv-x="1642" d="M121 739q0 355 194.5 563.5t511.5 208.5q311 0 504 -211.5t193 -556.5q0 -139 -28.5 -255.5t-74 -196.5t-108.5 -142.5t-127.5 -98.5t-135 -59.5t-126 -31.5t-105.5 -8q-322 0 -510 212t-188 576zM336 725q0 -264 135 -430t350 -166q223 0 355.5 167.5t132.5 448.5 q0 265 -132 425.5t-350 160.5q-227 0 -359 -162.5t-132 -443.5z" />
<glyph unicode="P" horiz-adv-x="1429" d="M215 0v1477h606q211 0 343 -124t132 -321q0 -198 -139.5 -316t-374.5 -118h-364v-598h-203zM416 774h215q57 0 92 1t86.5 6t83.5 15t69 29t58 45.5t35 67.5t14 94q0 135 -80.5 200.5t-243.5 65.5h-329v-524z" />
<glyph unicode="Q" horiz-adv-x="1642" d="M121 733q0 169 44 305.5t114 223t163.5 144.5t186.5 81.5t188 23.5q206 0 366.5 -96t249.5 -269.5t89 -395.5t-74 -394.5t-209 -269.5q-53 -38 -139 -78q61 -86 110 -132t109 -75l-158 -73q-73 41 -115 83t-116 146q-7 -2 -49 -6q-11 0 -31 -1t-25 -1q-326 0 -515 210.5 t-189 573.5zM338 725q0 -48 5 -97t20 -108.5t38 -112.5t62.5 -104t90.5 -88.5t124.5 -61.5t161.5 -26q-46 69 -86.5 113t-94.5 82l175 49q47 -38 81 -78t93 -129q31 14 62.5 34t76.5 67t78.5 107t57.5 158t24 215q0 264 -133 424t-351 160q-224 0 -354.5 -163t-130.5 -441z " />
<glyph unicode="R" horiz-adv-x="1429" d="M184 0v1477h627q201 0 331 -114.5t130 -289.5q0 -156 -76.5 -245.5t-234.5 -133.5l368 -694h-217l-356 664h-369v-664h-203zM387 838h387q139 0 212 60t73 175q0 232 -301 232h-371v-467z" />
<glyph unicode="S" horiz-adv-x="1429" d="M131 340l170 141q20 -93 51.5 -150t87.5 -102q118 -100 312 -100q138 0 233.5 80t95.5 194q0 108 -83 171t-293 112q-172 40 -238 69t-160 105q-112 118 -112 260q0 177 149.5 286.5t390.5 109.5q63 0 119 -8.5t98.5 -21t81.5 -34.5t65 -39.5t51.5 -46.5t39 -45.5 t30 -46.5t20.5 -39t15 -33l-151 -141q-9 27 -15 43t-22 48t-33 52.5t-47.5 47t-66.5 42t-88 26.5t-113 11q-146 0 -231 -56.5t-85 -154.5q0 -20 5.5 -39t19 -35t25.5 -29t35.5 -26t39.5 -22t46.5 -19.5t45.5 -16.5t49 -15t46 -12t45 -11q59 -13 101.5 -24.5t102.5 -33 t103 -44.5t89.5 -59.5t75 -79.5t47.5 -102.5t19 -129.5q0 -214 -159.5 -343.5t-423.5 -129.5q-317 0 -484 194q-34 40 -54.5 80.5t-45.5 116.5z" />
<glyph unicode="T" horiz-adv-x="1429" d="M115 1298v179h1200v-179h-500v-1298h-201v1298h-499z" />
<glyph unicode="U" horiz-adv-x="1536" d="M205 444v1033h203v-1014q0 -158 95 -242t275 -84q80 0 155.5 26t117.5 70q77 77 77 273v971h203v-1002q0 -127 -30 -217t-95 -156q-72 -73 -185.5 -112t-254.5 -39q-262 0 -411.5 131.5t-149.5 361.5z" />
<glyph unicode="V" horiz-adv-x="1536" d="M129 1477h213l436 -1166l420 1166h209l-533 -1477h-186z" />
<glyph unicode="W" horiz-adv-x="2197" d="M121 1477h198l345 -1198l329 1198h209l324 -1201l354 1201h197l-432 -1477h-218l-329 1214l-334 -1214h-215z" />
<glyph unicode="X" horiz-adv-x="1429" d="M98 0l488 758l-486 719h244l358 -535l347 535h231l-459 -713l510 -764h-241l-388 580l-368 -580h-236z" />
<glyph unicode="Y" horiz-adv-x="1429" d="M84 1477h227l396 -666l413 666h228l-539 -871v-606h-203v598z" />
<glyph unicode="Z" horiz-adv-x="1323" d="M104 0v113l832 1185h-756v179h1039v-115l-832 -1184h827v-178h-1110z" />
<glyph unicode="[" horiz-adv-x="768" d="M125 -340v1819h518v-115h-330v-1589h330v-115h-518z" />
<glyph unicode="\" horiz-adv-x="661" d="M70 1495h139l381 -1843h-139z" />
<glyph unicode="]" horiz-adv-x="768" d="M125 -225h330v1591h-330v115h518v-1821h-518v115z" />
<glyph unicode="^" horiz-adv-x="960" d="M53 690l355 801h145l354 -801h-182l-246 598l-241 -598h-185z" />
<glyph unicode="_" horiz-adv-x="1024" d="M0 -154h1024v-102h-1024v102z" />
<glyph unicode="`" horiz-adv-x="681" d="M72 1399h239l135 -279h-145z" />
<glyph unicode="a" horiz-adv-x="1087" d="M92 299q0 60 24.5 119.5t67.5 103.5q54 56 133.5 86.5t202.5 42.5q110 12 145.5 25.5t82.5 62.5q-1 92 -40.5 123t-152.5 31q-117 0 -182.5 -37t-100.5 -123l-141 76q10 25 18 41.5t25.5 43t36.5 44.5t51.5 39t71 33.5t93.5 21t120 8.5q77 0 138 -12t99.5 -29t66 -46 t40.5 -51.5t20 -58t8 -53.5t1 -49l-2 -495q0 -94 12 -115t67 -22v-117q-76 -23 -108 -23q-38 0 -66 13t-42.5 31.5t-23 47t-10.5 52t-2 55.5q-31 -38 -55.5 -64t-68 -61.5t-98.5 -54.5t-117 -19q-134 0 -224 94.5t-90 235.5zM272 297q0 -83 53 -135.5t138 -52.5 q110 0 194 81q51 50 71 105.5t20 150.5v164q-55 -42 -88.5 -55.5t-120.5 -28.5t-134 -36.5t-81 -61.5q-52 -58 -52 -131z" />
<glyph unicode="b" d="M209 0v1477h172v-711q13 30 22 48.5t27 49.5t34 51t42 44t53.5 38t65 23.5t80.5 9.5q172 0 272 -142t100 -388q0 -236 -101 -380.5t-265 -144.5q-44 0 -83.5 10t-68 23.5t-55.5 37.5t-43.5 43t-35 49.5t-26.5 46t-22 44.5v-229h-168zM379 506q0 -219 102 -318 q78 -75 181 -75q112 0 174.5 97t62.5 271q0 158 -28 244.5t-93 130.5q-56 35 -116 35q-132 -3 -207.5 -105.5t-75.5 -279.5z" />
<glyph unicode="c" horiz-adv-x="1087" d="M111 512q0 229 132.5 378.5t336.5 149.5q76 0 140.5 -22t104.5 -53.5t70.5 -73t45 -74.5t20.5 -63l-142 -68q-29 106 -89.5 157.5t-156.5 51.5q-136 0 -210 -100.5t-74 -286.5q0 -114 23 -187.5t75 -127.5q84 -87 201 -87q194 0 260 213l129 -69q-4 -26 -18 -58 t-45.5 -72.5t-74 -73t-111.5 -55t-150 -22.5q-206 0 -336.5 152t-130.5 391z" />
<glyph unicode="d" d="M139 506q0 235 105 381.5t274 146.5q57 0 105 -17t79 -40t60.5 -63t44.5 -68.5t35 -73.5v705h172v-1477h-170v236q-6 -11 -23 -43t-25.5 -47t-27.5 -43t-33.5 -42.5t-38.5 -34.5t-48 -30t-57.5 -17.5t-70.5 -7.5q-175 0 -278 145t-103 390zM317 481q0 -172 64.5 -268 t179.5 -96q50 0 98.5 20.5t83.5 57.5q52 49 75.5 123.5t23.5 189.5q0 79 -15 142.5t-36.5 102.5t-53 68t-57 42t-55 20.5t-41 8.5t-21.5 1q-121 -4 -183.5 -109t-62.5 -303z" />
<glyph unicode="e" horiz-adv-x="1085" d="M100 504q0 236 127.5 385t329.5 149q186 0 308 -137t122 -344q0 -22 -4 -108h-704q3 -70 19 -126.5t37 -91.5t51 -60.5t54 -37.5t53.5 -18.5t42.5 -7.5t27 -1q40 0 75.5 10t59.5 22.5t47 36.5t35 39.5t26 44t17.5 37.5t12.5 32l137 -68q-29 -63 -50.5 -96t-56.5 -68 q-130 -127 -317 -127q-201 0 -325 148.5t-124 386.5zM283 586h526q-3 64 -18.5 115.5t-35 83.5t-47.5 55.5t-50 34t-49 17t-37.5 7t-22.5 0.5q-120 0 -189.5 -81t-76.5 -232z" />
<glyph unicode="f" horiz-adv-x="661" d="M45 866v146h201v258q0 131 50.5 179t188.5 48q50 0 129 -10v-144q-54 5 -77 5q-68 0 -93.5 -28t-25.5 -101v-207h200v-146h-200v-866h-172v866h-201z" />
<glyph unicode="g" d="M152 500q0 241 105.5 388.5t277.5 147.5q42 0 79.5 -9.5t64 -22t53 -37.5t41.5 -42t34.5 -50.5t26.5 -48t24 -48.5v234h168v-983q0 -199 -115.5 -308.5t-326.5 -109.5q-173 0 -281 72t-108 188q0 35 16 68l160 -70v-6q0 -54 57 -82q59 -29 156 -29q126 0 198 57t72 158 v238q-61 -118 -138.5 -177t-187.5 -59q-167 0 -271.5 148t-104.5 383zM334 528q0 -136 20.5 -215t71.5 -131q62 -65 166 -65q124 0 194 95.5t70 264.5q0 195 -76 308.5t-205 113.5q-115 0 -178 -97t-63 -274z" />
<glyph unicode="h" d="M205 0v1477h172v-639q31 40 59 70t68.5 62.5t91 50t106.5 17.5q143 0 226.5 -98t83.5 -266v-674h-172v653q0 109 -58 173.5t-155 64.5q-114 0 -182 -72.5t-68 -193.5v-625h-172z" />
<glyph unicode="i" horiz-adv-x="555" d="M193 0v1012h172v-1012h-172zM193 1206v221h172v-221h-172z" />
<glyph unicode="j" horiz-adv-x="555" d="M61 -246q25 -2 45 -2q57 0 80 16q31 23 31 105v1139h172v-1170q0 -235 -244 -235q-32 0 -84 8v139zM217 1206v224h172v-224h-172z" />
<glyph unicode="k" horiz-adv-x="980" d="M156 0v1477h172v-895l356 430h190l-278 -320l332 -692h-185l-264 557l-153 -178v-379h-170z" />
<glyph unicode="l" horiz-adv-x="555" d="M193 0v1477h172v-1477h-172z" />
<glyph unicode="m" horiz-adv-x="1748" d="M190 0v1012h170v-187q62 111 133 162t164 51q106 0 173 -55t110 -166q25 38 38.5 58t46 56.5t61.5 55.5t74 35t95 16q132 0 218 -94t86 -235v-709h-170v653q0 112 -53.5 176t-145.5 64q-229 0 -229 -295v-598h-173v612q0 146 -47.5 214.5t-150.5 68.5 q-101 0 -165.5 -74.5t-64.5 -191.5v-629h-170z" />
<glyph unicode="n" d="M205 0v1012h172v-181q142 207 330 207q137 0 222 -93t85 -243v-702h-172v651q0 114 -55 177t-154 63q-112 0 -184 -71t-72 -181v-639h-172z" />
<glyph unicode="o" d="M137 510q0 232 131 380t336 148q209 0 342 -146t133 -376q0 -250 -130 -398.5t-347 -148.5q-206 0 -335.5 151t-129.5 390zM317 500q0 -183 78 -283t223 -100q131 0 206 103t75 284q0 197 -81.5 293t-215.5 96t-209.5 -101.5t-75.5 -291.5z" />
<glyph unicode="p" d="M207 -391v1403h170v-238q20 44 36.5 74t46 68t61.5 61t81.5 39t108.5 16q167 0 268.5 -143t101.5 -379q0 -244 -105 -390.5t-280 -146.5q-53 0 -98 15.5t-74.5 37t-59 60t-46 68t-39.5 77.5v-622h-172zM377 498q0 -175 76.5 -278t205.5 -103q90 0 148 61q49 49 70.5 130 t21.5 214q0 180 -61 272.5t-179 92.5q-132 0 -207 -103t-75 -286z" />
<glyph unicode="q" d="M141 500q0 244 103 388t276 144q61 0 113 -20t83.5 -45.5t60 -67.5t40 -67t27.5 -64v244h170v-1403h-172v633q-27 -76 -66.5 -131.5t-74 -81t-76.5 -40t-61 -16.5t-40 -2q-169 0 -276 148.5t-107 380.5zM317 518q0 -147 31.5 -233.5t100.5 -130.5q52 -35 118 -35 q132 6 205.5 104.5t73.5 268.5q0 82 -15 148.5t-36.5 107.5t-53.5 71.5t-57.5 44t-56.5 21.5t-43.5 9t-24.5 1q-112 0 -177 -101t-65 -276z" />
<glyph unicode="r" horiz-adv-x="768" d="M180 0v1012h172v-197q20 38 33.5 60.5t40.5 57t52 54t63 34.5t80 15q17 0 71 -4v-178q-57 8 -88 8q-112 0 -183 -73t-71 -189v-600h-170z" />
<glyph unicode="s" horiz-adv-x="1087" d="M123 254l137 82q24 -230 291 -230q104 0 174 43.5t70 108.5q0 66 -62 105.5t-203 64.5q-66 12 -115.5 26.5t-101 39.5t-84.5 57t-54 81t-21 111q0 132 109 214.5t284 82.5q83 0 151.5 -22t110 -54t71 -71.5t41.5 -70t15 -54.5l-121 -82q-26 109 -92.5 161t-179.5 52 q-97 0 -164.5 -40.5t-67.5 -98.5q0 -61 62 -99t200 -61q91 -16 124 -26q227 -66 262 -233q6 -27 6 -56q0 -8 -1 -20.5t-9.5 -45.5t-23.5 -63t-48 -66t-77 -62t-115.5 -43.5t-160.5 -17.5q-179 0 -292 90q-44 35 -68 76t-47 121z" />
<glyph unicode="t" horiz-adv-x="661" d="M27 868v144h182v264l172 123v-387h215v-144h-215v-612q0 -80 19 -109.5t71 -29.5q35 0 113 18v-143q-109 -23 -156 -23q-118 0 -168.5 42.5t-50.5 142.5v714h-182z" />
<glyph unicode="u" d="M203 299v713h172v-637q0 -256 203 -256q109 0 186.5 79t77.5 191v623h172v-1012h-176v178q-18 -28 -32 -47t-45.5 -53.5t-63 -55.5t-79 -38t-98.5 -17q-143 0 -230 91.5t-87 240.5z" />
<glyph unicode="v" horiz-adv-x="980" d="M80 1012h166l250 -772l243 772h164l-315 -1012h-182z" />
<glyph unicode="w" horiz-adv-x="1536" d="M78 1012h168l223 -817l219 817h160l229 -813l217 813h166l-305 -1012h-158l-231 819l-223 -819h-162z" />
<glyph unicode="x" horiz-adv-x="980" d="M78 0l313 532l-297 480h182l205 -328l193 328h178l-279 -477l332 -535h-182l-240 383l-223 -383h-182z" />
<glyph unicode="y" horiz-adv-x="980" d="M78 1012h162l264 -791l235 791h164l-325 -1051l-17 -57q-11 -37 -17 -56t-17 -50t-20 -47t-24 -40t-30 -36t-37 -27t-47 -22t-57 -12t-70 -5q-44 0 -117 8v143q71 -12 113 -12q82 0 116 39.5t78 187.5z" />
<glyph unicode="z" horiz-adv-x="980" d="M129 0v129l485 743h-444v140h668v-105l-504 -770h518v-137h-723z" />
<glyph unicode="{" horiz-adv-x="684" d="M53 485v164q34 1 61.5 8.5t47.5 18t35.5 30.5t26 37.5t17.5 48.5t11 53t5.5 60.5t2 62.5t0.5 68q1 206 17 282q27 131 121 177q68 33 180 33h55v-156h-31q-107 0 -139.5 -39.5t-32.5 -167.5v-145q0 -115 -12.5 -192t-41.5 -127t-63.5 -78.5t-91.5 -55.5q117 -50 163 -149 t46 -303v-146q0 -128 32.5 -167.5t139.5 -39.5h31v-155h-55q-92 0 -153.5 25t-94 57t-48.5 108t-18.5 130t-3.5 170v1q0 44 -0.5 68t-2 62.5t-5.5 60.5t-11 53t-17.5 48.5t-26 37.5t-35.5 30.5t-47.5 18t-61.5 8.5z" />
<glyph unicode="|" horiz-adv-x="1118" d="M479 -512v2048h160v-2048h-160z" />
<glyph unicode="}" horiz-adv-x="684" d="M51 -238h31q107 0 139.5 39.5t32.5 167.5v146q0 204 46 303t163 149q-44 21 -72 40t-56.5 53t-44.5 79.5t-26 115.5t-10 165v145q0 129 -32.5 168t-139.5 39h-31v156h55q52 0 94 -8t73 -18.5t55 -34.5t39.5 -43t26.5 -58.5t16.5 -66t8.5 -80t4 -85.5t1 -97v-1 q0 -44 0.5 -68t2 -62.5t5.5 -60.5t11 -53t17.5 -48.5t26 -37.5t35.5 -30.5t47.5 -18t61.5 -8.5v-164q-34 -1 -61.5 -8.5t-47.5 -18t-35.5 -30.5t-26 -37.5t-17.5 -48.5t-11 -53t-5.5 -60.5t-2 -62.5t-0.5 -68q-1 -206 -17 -282q-27 -130 -121 -176q-68 -33 -180 -33h-55v155 z" />
<glyph unicode="~" horiz-adv-x="1343" d="M127 582v168q154 129 303 129q56 0 116 -19t177 -76q130 -65 203 -65q69 0 135.5 32.5t155.5 110.5v-170q-152 -131 -293 -131q-61 0 -121 19.5t-187 81.5q-131 61 -194 61q-132 0 -295 -141z" />
<glyph unicode="&#xa1;" horiz-adv-x="555" d="M178 -340l27 1059h141l31 -1059h-199zM178 885v260h199v-260h-199z" />
<glyph unicode="&#xa2;" horiz-adv-x="1087" d="M111 512q0 229 132.5 378.5t336.5 149.5q38 0 73 -6l135 379h156l-153 -428q74 -42 116 -108t54 -123l-142 -68q-26 100 -82 152l-256 -709q54 -23 107 -23q194 0 260 213l129 -69q-4 -26 -18 -58t-45.5 -72.5t-74 -73t-111.5 -55t-150 -22.5q-78 0 -146 27l-141 -393 h-152l166 460q-92 70 -143 186.5t-51 262.5zM289 508q0 -192 73 -283l240 668q-10 2 -29 2q-136 0 -210 -100.5t-74 -286.5z" />
<glyph unicode="&#xa3;" horiz-adv-x="1323" d="M72 154q0 88 71.5 148t175.5 60q65 0 162 -32q6 59 6 80q0 108 -41 247h-305v154h273q-25 146 -25 213q0 174 107.5 286.5t273.5 112.5q115 0 202 -55.5t128 -155.5q23 -56 28 -159l-196 20q-4 94 -49 144.5t-123 50.5q-82 0 -129 -61t-47 -165q0 -76 30 -231h306v-154 h-275q10 -79 10 -129q0 -144 -51 -254q131 -69 195.5 -91.5t128.5 -22.5q77 0 117.5 41.5t37.5 117.5h170q-4 -96 -25.5 -155t-68.5 -109q-90 -90 -248 -90q-99 0 -184.5 38t-198.5 114q-55 -79 -116 -115.5t-142 -36.5q-84 0 -141 54.5t-57 134.5zM176 152 q0 -33 27.5 -55.5t68.5 -22.5q44 0 80 26.5t74 87.5q-87 54 -143 54q-43 0 -75 -27.5t-32 -62.5z" />
<glyph unicode="&#xa4;" horiz-adv-x="1366" d="M182 274l127 127q-82 116 -82 265q0 147 84 266l-129 129l105 106l131 -129q120 84 266 84q139 0 262 -86l131 131l105 -106l-131 -129q88 -115 88 -264t-86 -265l129 -129l-105 -106l-131 131q-117 -88 -264 -88q-149 0 -266 84l-127 -127zM377 666q0 -127 89.5 -217.5 t215.5 -90.5q127 0 217 91t90 219q0 126 -89 215.5t-216 89.5q-128 0 -217.5 -89.5t-89.5 -217.5z" />
<glyph unicode="&#xa5;" horiz-adv-x="1429" d="M84 1477h225l398 -584l413 584h228l-463 -668h426v-127h-504v-182h504v-127h-504v-373h-201v373h-487v127h487v182h-487v127h411z" />
<glyph unicode="&#xa6;" horiz-adv-x="1118" d="M479 -358v716h160v-716h-160zM479 666v716h160v-716h-160z" />
<glyph unicode="&#xa7;" horiz-adv-x="980" d="M96 559q0 50 11 95t33.5 81.5t42.5 63t52 53t47 37.5t42 29q-89 60 -129.5 126t-40.5 154q0 130 99 216.5t247 86.5q158 0 247.5 -83.5t110.5 -239.5l-172 -45q-12 229 -188 229q-72 0 -121 -39.5t-49 -97.5q0 -57 49.5 -109.5t171.5 -124.5q185 -108 261.5 -206 t76.5 -222q0 -58 -18 -112t-40.5 -88.5t-58.5 -69.5t-55 -49t-47 -33q89 -73 126 -139t37 -150q0 -132 -100 -215.5t-258 -83.5q-96 0 -174 44.5t-125 127.5q-33 61 -49 150l176 43q3 -111 53 -170.5t140 -59.5q70 0 119 43t49 103q0 57 -51.5 109.5t-174.5 121.5 q-183 106 -261.5 203.5t-78.5 220.5zM254 614q0 -53 16.5 -94t66 -83.5t85 -66t126.5 -77.5q9 -5 13 -8q94 58 132 113t38 130q0 68 -51.5 129t-179.5 142q-40 26 -64 43q-96 -55 -139 -109t-43 -119z" />
<glyph unicode="&#xa8;" horiz-adv-x="681" d="M61 1139v204h187v-204h-187zM434 1139v204h187v-204h-187z" />
<glyph unicode="&#xa9;" horiz-adv-x="1511" d="M0 737q0 153 60 292.5t161 240.5t241 161t294 60q153 0 292.5 -60t240.5 -161t160.5 -240.5t59.5 -292.5q0 -206 -101 -379.5t-274 -274.5t-378 -101q-154 0 -294 59.5t-241 160.5t-161 241t-60 294zM125 737q0 -128 50 -245t134.5 -201.5t201.5 -134.5t245 -50 q127 0 243.5 50t200.5 134.5t134 201.5t50 245q0 127 -50 243.5t-134 201t-200.5 134.5t-243.5 50q-171 0 -316.5 -84.5t-230 -229.5t-84.5 -315zM360 748q0 187 110.5 299t293.5 112q131 0 219.5 -60.5t120.5 -174.5l-119 -29q-59 154 -233 154q-116 0 -186 -87.5 t-70 -232.5q0 -144 69 -225.5t191 -81.5q88 0 153 52t88 140l123 -36q-31 -126 -128.5 -200.5t-233.5 -74.5q-186 0 -292 119t-106 326z" />
<glyph unicode="&#xaa;" horiz-adv-x="681" d="M55 1047q0 91 68.5 148t193.5 69q74 9 98 18t54 39q0 54 -24.5 77t-94.5 23q-76 0 -116.5 -23t-63.5 -79l-90 49q32 77 92.5 110t167.5 33q115 0 175 -40.5t60 -118.5v-375q0 -31 10 -40t42 -11v-76q-49 -14 -70 -14q-46 0 -66.5 28.5t-23.5 96.5q-60 -71 -106.5 -97 t-112.5 -26q-83 0 -138 59t-55 150zM170 1044q0 -54 33 -86t86 -32q69 0 123.5 53.5t54.5 114.5v145q-33 -24 -54 -32t-77 -19q-86 -17 -126 -52t-40 -92z" />
<glyph unicode="&#xab;" horiz-adv-x="980" d="M55 567l271 500h178l-271 -498l271 -497h-178zM477 567l271 500h178l-271 -498l271 -497h-178z" />
<glyph unicode="&#xac;" horiz-adv-x="1366" d="M135 827v158h1096v-645h-158v487h-938z" />
<glyph unicode="&#xad;" horiz-adv-x="768" d="M102 424v168h566v-168h-566z" />
<glyph unicode="&#xae;" horiz-adv-x="1511" d="M0 737q0 153 60 292.5t161 240.5t241 161t294 60q153 0 292.5 -60t240.5 -161t160.5 -240.5t59.5 -292.5q0 -206 -101 -379.5t-274 -274.5t-378 -101q-154 0 -294 59.5t-241 160.5t-161 241t-60 294zM125 737q0 -128 50 -245t134.5 -201.5t201.5 -134.5t245 -50 q127 0 243.5 50t200.5 134.5t134 201.5t50 245q0 127 -50 243.5t-134 201t-200.5 134.5t-243.5 50q-171 0 -316.5 -84.5t-230 -229.5t-84.5 -315zM424 319v811h278q97 0 138.5 -4.5t83.5 -21.5q54 -23 90.5 -76t36.5 -110q0 -98 -64.5 -163t-167.5 -73q46 -19 87 -63 t102 -142l98 -158h-160l-72 127q-79 138 -123 178t-118 40h-78v-345h-131zM555 776h160q102 0 149 29.5t47 93.5q0 67 -46 94t-160 27h-150v-244z" />
<glyph unicode="&#xaf;" horiz-adv-x="681" d="M29 1153v147h624v-147h-624z" />
<glyph unicode="&#xb0;" horiz-adv-x="819" d="M133 1214q0 114 81 195.5t196 81.5t195.5 -80.5t80.5 -196.5t-80.5 -197t-195.5 -81t-196 81t-81 197zM242 1214q0 -70 49.5 -120t118.5 -50q70 0 119 49.5t49 120.5q0 69 -49 118.5t-119 49.5t-119 -49.5t-49 -118.5z" />
<glyph unicode="&#xb1;" horiz-adv-x="1366" d="M135 -49v158h1096v-158h-1096zM135 758v157h467v471h158v-471h471v-157h-471v-467h-158v467h-467z" />
<glyph unicode="&#xb2;" horiz-adv-x="661" d="M78 774q5 50 22 93t46 79.5t55 62t67 58.5q103 85 135.5 129.5t42.5 114.5q-3 56 -35 90.5t-83 34.5q-55 0 -92 -33.5t-37 -83.5q0 -28 16 -78l-96 -51q-31 66 -31 117q0 95 69 157t173 62q115 0 184.5 -59.5t69.5 -157.5q0 -78 -39 -135t-148 -136q-83 -61 -119 -91.5 t-67 -67.5h362v-105h-495z" />
<glyph unicode="&#xb3;" horiz-adv-x="661" d="M74 944q0 26 20 88l105 -45q-5 -35 3 -61.5t21 -40t32.5 -21.5t34 -10t29.5 -2q56 0 93 37t37 94q0 66 -44 101t-139 44v93q168 3 168 106q0 47 -33 77t-86 30q-15 0 -28 -2.5t-31.5 -10.5t-28.5 -28.5t-8 -51.5l-104 -38q-11 57 -11 71q0 66 62 110t156 44 q107 0 173 -52t66 -135q0 -57 -25 -95t-87 -75q72 -35 105.5 -81.5t33.5 -112.5q0 -92 -77.5 -156.5t-186.5 -64.5q-105 0 -177.5 54.5t-72.5 133.5z" />
<glyph unicode="&#xb4;" horiz-adv-x="681" d="M240 1120l133 279h235l-219 -279h-149z" />
<glyph unicode="&#xb5;" horiz-adv-x="1138" d="M139 -408v1450h178v-497q0 -143 16 -213t60 -119q31 -35 75 -55.5t91 -20.5q96 0 164 58q59 51 78.5 120.5t19.5 225.5v501h178v-1042h-161v125q-56 -83 -116 -116.5t-155 -33.5q-82 0 -137 29t-113 102v-514h-178z" />
<glyph unicode="&#xb6;" horiz-adv-x="1101" d="M-2 1061q0 125 58.5 222.5t162.5 146.5q62 28 112 37.5t140 9.5h633v-185h-143v-1700h-170v1700h-218v-1700h-170v1055q-188 11 -296.5 122t-108.5 292z" />
<glyph unicode="&#xb7;" horiz-adv-x="555" d="M178 444v258h199v-258h-199z" />
<glyph unicode="&#xb8;" horiz-adv-x="681" d="M123 -483l12 116q74 -4 92 -4q162 0 162 76q0 19 -11 32t-25 19.5t-39.5 10t-40 4t-40.5 0.5l52 178h135l-35 -107q82 -11 127 -50.5t45 -100.5q0 -83 -80 -135t-209 -52q-78 0 -145 13z" />
<glyph unicode="&#xb9;" horiz-adv-x="661" d="M197 1255v101q112 70 178 170h90v-752h-123v580q-80 -70 -145 -99z" />
<glyph unicode="&#xba;" horiz-adv-x="768" d="M86 1180q0 146 83 238.5t214 92.5t215 -93t84 -238q0 -154 -81.5 -248t-215.5 -94q-133 0 -216 95t-83 247zM201 1178q0 -122 49.5 -185t144.5 -63q80 0 127 66t47 178q0 115 -49 180t-135 65q-89 0 -136.5 -62t-47.5 -179z" />
<glyph unicode="&#xbb;" horiz-adv-x="980" d="M55 72l271 497l-271 498h178l271 -500l-271 -495h-178zM477 72l271 497l-271 498h178l271 -500l-271 -495h-178z" />
<glyph unicode="&#xbc;" horiz-adv-x="1748" d="M115 -346l1392 1829h129l-1388 -1829h-133zM213 1186v104q79 50 123.5 91t83.5 102h106v-846h-143v639q-40 -35 -77.5 -55t-92.5 -35zM999 2l349 494h133v-541h98v-121h-98v-182h-138v182h-344v168zM1104 -45h242v346z" />
<glyph unicode="&#xbd;" horiz-adv-x="1748" d="M119 -346l1382 1827h131l-1380 -1827h-133zM211 1192v104q72 38 116 78.5t89 106.5h104v-842h-139v639q-96 -77 -170 -86zM1094 -328q2 42 7.5 71t23 71t57 85.5t100.5 90.5q102 77 135 126t45 144q-6 137 -116 137q-53 0 -84 -34.5t-31 -92.5q0 -33 18 -86l-110 -69 q-24 54 -32.5 84.5t-8.5 66.5q0 103 72 166.5t190 63.5q109 0 182.5 -71t73.5 -175q0 -44 -14.5 -85.5t-32.5 -69.5t-52.5 -61t-54 -48t-57.5 -43q-72 -52 -101 -78.5t-61 -67.5h361v-125h-510z" />
<glyph unicode="&#xbe;" horiz-adv-x="1748" d="M113 856q0 35 20 96l133 -53q-10 -34 -10 -53q0 -50 30 -79.5t81 -29.5t79.5 35.5t28.5 97.5q0 91 -43 128t-151 40v99q54 -1 91.5 9.5t56 30.5t25.5 39.5t7 43.5q0 58 -26.5 90t-72.5 32q-35 0 -61.5 -22t-26.5 -51q0 -15 5 -33l-127 -47q-13 54 -13 80q0 74 66 123 t166 49q108 0 173.5 -56.5t65.5 -148.5q0 -65 -29.5 -108t-99.5 -81q154 -59 154 -206q0 -105 -76 -174.5t-192 -69.5q-104 0 -179 65t-75 154zM119 -346l1388 1827h129l-1384 -1827h-133zM999 0l349 496h133v-541h98v-121h-98v-182h-135v180h-347v168zM1106 -45h240v342z " />
<glyph unicode="&#xbf;" horiz-adv-x="1087" d="M135 6q0 117 54.5 212t187.5 210q79 70 102 117t25 141h153q-1 -70 -8 -120t-16 -83t-36 -68.5t-47.5 -56.5t-70.5 -67q-151 -138 -151 -279q0 -100 65 -167.5t162 -67.5q47 0 85 16t62 39t41 58t25 63.5t12.5 66t5 54.5t0.5 39l166 -88q-6 -108 -31 -174.5t-83 -124.5 q-114 -117 -299 -117q-173 0 -288.5 114t-115.5 283zM483 881v256h199v-256h-199z" />
<glyph unicode="&#xc0;" horiz-adv-x="1748" d="M139 0l647 1477h181l645 -1477h-205l-158 356h-745l-158 -356h-207zM582 539h587l-292 673zM592 1864h239l136 -279h-146z" />
<glyph unicode="&#xc1;" horiz-adv-x="1748" d="M139 0l647 1477h181l645 -1477h-205l-158 356h-745l-158 -356h-207zM582 539h587l-292 673zM786 1585l134 279h235l-219 -279h-150z" />
<glyph unicode="&#xc2;" horiz-adv-x="1748" d="M139 0l647 1477h181l645 -1477h-205l-158 356h-745l-158 -356h-207zM559 1585l217 279h191l225 -279h-203l-110 170l-113 -170h-207zM582 539h587l-292 673z" />
<glyph unicode="&#xc3;" horiz-adv-x="1748" d="M139 0l647 1477h181l645 -1477h-205l-158 356h-745l-158 -356h-207zM541 1610q-3 107 57.5 167t149.5 60q62 0 151 -47l29 -14q51 -23 80 -23q34 0 49.5 19t21.5 67h131q-3 -107 -53.5 -167t-138.5 -60q-68 0 -152 47l-37 20q-49 25 -81 25t-53.5 -25t-20.5 -69h-133z M582 539h587l-292 673z" />
<glyph unicode="&#xc4;" horiz-adv-x="1748" d="M139 0l647 1477h181l645 -1477h-205l-158 356h-745l-158 -356h-207zM582 539h587l-292 673zM596 1604v204h186v-204h-186zM969 1604v204h186v-204h-186z" />
<glyph unicode="&#xc5;" horiz-adv-x="1748" d="M139 0l647 1477h181l645 -1477h-205l-158 356h-745l-158 -356h-207zM582 539h587l-292 673zM696 1729q0 74 54.5 126t130.5 52q72 0 124 -54t52 -129q0 -77 -52.5 -130.5t-127.5 -53.5t-128 55.5t-53 133.5zM774 1729q0 -47 30.5 -80t74.5 -33t75 32t31 76q0 46 -31 77.5 t-75 31.5q-43 0 -74 -30.5t-31 -73.5z" />
<glyph unicode="&#xc6;" horiz-adv-x="2197" d="M47 0l850 1477h1128l-63 -172h-674v-461h621v-172h-621v-502h680l55 -170h-936v358h-614l-207 -358h-219zM571 535h516v770h-75z" />
<glyph unicode="&#xc7;" horiz-adv-x="1536" d="M141 694q0 241 87 427t244.5 288t361.5 102q117 0 215 -32.5t156 -76.5t101.5 -100t60.5 -93t24 -66l-156 -133q-12 33 -19.5 51.5t-26.5 56.5t-37.5 62t-49.5 55t-66 48.5t-84 30.5t-106 13q-218 0 -353 -164.5t-135 -431.5q0 -114 21 -207.5t53.5 -154.5t78 -107.5 t88.5 -71t91.5 -39t81 -18.5t62.5 -4q183 0 315 129q34 32 55.5 64.5t52.5 95.5l140 -146q-38 -67 -64 -101.5t-65 -70.5q-158 -143 -406 -149l-33 -101q82 -11 127 -50.5t45 -100.5q0 -83 -79.5 -134.5t-208.5 -51.5q-85 0 -146 12l13 117q74 -4 92 -4q162 0 162 75 q0 19 -11 32t-25 19.5t-39.5 10t-40 4t-40.5 0.5l51 176q-88 10 -164 38t-131 66.5t-100.5 89t-75 101.5t-52 108t-34.5 105t-19.5 97t-9.5 79t-2 55z" />
<glyph unicode="&#xc8;" d="M186 0v1477h920l-55 -174h-664v-453h608v-176h-608v-498h666l59 -176h-926zM340 1864h240l135 -279h-146z" />
<glyph unicode="&#xc9;" d="M186 0v1477h920l-55 -174h-664v-453h608v-176h-608v-498h666l59 -176h-926zM508 1585l133 279h236l-220 -279h-149z" />
<glyph unicode="&#xca;" d="M186 0v1477h920l-55 -174h-664v-453h608v-176h-608v-498h666l59 -176h-926zM313 1585l217 279h191l225 -279h-203l-110 170l-113 -170h-207z" />
<glyph unicode="&#xcb;" d="M186 0v1477h920l-55 -174h-664v-453h608v-176h-608v-498h666l59 -176h-926zM350 1604v204h187v-204h-187zM723 1604v204h186v-204h-186z" />
<glyph unicode="&#xcc;" horiz-adv-x="661" d="M47 1864h240l135 -279h-146zM229 0v1477h203v-1477h-203z" />
<glyph unicode="&#xcd;" horiz-adv-x="661" d="M227 1585l133 279h236l-219 -279h-150zM229 0v1477h203v-1477h-203z" />
<glyph unicode="&#xce;" horiz-adv-x="661" d="M14 1585l217 279h191l225 -279h-203l-110 170l-113 -170h-207zM229 0v1477h203v-1477h-203z" />
<glyph unicode="&#xcf;" horiz-adv-x="661" d="M51 1604v204h187v-204h-187zM229 0v1477h203v-1477h-203zM424 1604v204h186v-204h-186z" />
<glyph unicode="&#xd0;" horiz-adv-x="1642" d="M63 659v156h216v662h550q301 0 465 -164q107 -104 164.5 -253t57.5 -321q0 -344 -176.5 -541.5t-485.5 -197.5h-575v659h-216zM481 182h367q212 0 332 145t120 402q0 150 -40.5 269t-118.5 192q-109 106 -310 106h-350v-481h480v-156h-480v-477z" />
<glyph unicode="&#xd1;" horiz-adv-x="1536" d="M205 0v1477h272l651 -1151v1151h203v-1477h-241l-684 1204v-1204h-201zM455 1610q-3 107 57.5 167t149.5 60q62 0 151 -47l29 -14q51 -23 80 -23q34 0 49.5 19t21.5 67h131q-3 -107 -53.5 -167t-138.5 -60q-68 0 -152 47l-37 20q-49 25 -81 25t-53.5 -25t-20.5 -69h-133z " />
<glyph unicode="&#xd2;" horiz-adv-x="1642" d="M121 739q0 355 194.5 563.5t511.5 208.5q311 0 504 -211.5t193 -556.5q0 -139 -28.5 -255.5t-74 -196.5t-108.5 -142.5t-127.5 -98.5t-135 -59.5t-126 -31.5t-105.5 -8q-322 0 -510 212t-188 576zM336 725q0 -264 135 -430t350 -166q223 0 355.5 167.5t132.5 448.5 q0 265 -132 425.5t-350 160.5q-227 0 -359 -162.5t-132 -443.5zM553 1864h240l135 -279h-146z" />
<glyph unicode="&#xd3;" horiz-adv-x="1642" d="M121 739q0 355 194.5 563.5t511.5 208.5q311 0 504 -211.5t193 -556.5q0 -139 -28.5 -255.5t-74 -196.5t-108.5 -142.5t-127.5 -98.5t-135 -59.5t-126 -31.5t-105.5 -8q-322 0 -510 212t-188 576zM336 725q0 -264 135 -430t350 -166q223 0 355.5 167.5t132.5 448.5 q0 265 -132 425.5t-350 160.5q-227 0 -359 -162.5t-132 -443.5zM721 1585l133 279h236l-220 -279h-149z" />
<glyph unicode="&#xd4;" horiz-adv-x="1642" d="M121 739q0 355 194.5 563.5t511.5 208.5q311 0 504 -211.5t193 -556.5q0 -139 -28.5 -255.5t-74 -196.5t-108.5 -142.5t-127.5 -98.5t-135 -59.5t-126 -31.5t-105.5 -8q-322 0 -510 212t-188 576zM336 725q0 -264 135 -430t350 -166q223 0 355.5 167.5t132.5 448.5 q0 265 -132 425.5t-350 160.5q-227 0 -359 -162.5t-132 -443.5zM506 1585l217 279h190l226 -279h-203l-111 170l-112 -170h-207z" />
<glyph unicode="&#xd5;" horiz-adv-x="1642" d="M121 739q0 355 194.5 563.5t511.5 208.5q311 0 504 -211.5t193 -556.5q0 -139 -28.5 -255.5t-74 -196.5t-108.5 -142.5t-127.5 -98.5t-135 -59.5t-126 -31.5t-105.5 -8q-322 0 -510 212t-188 576zM336 725q0 -264 135 -430t350 -166q223 0 355.5 167.5t132.5 448.5 q0 265 -132 425.5t-350 160.5q-227 0 -359 -162.5t-132 -443.5zM487 1610q-3 107 57.5 167t149.5 60q63 0 152 -47l28 -14q51 -23 80 -23q34 0 50 19.5t22 66.5h131q-3 -107 -53.5 -167t-138.5 -60q-68 0 -152 47l-37 20q-49 25 -82 25q-32 0 -53 -25t-20 -69h-134z" />
<glyph unicode="&#xd6;" horiz-adv-x="1642" d="M121 739q0 355 194.5 563.5t511.5 208.5q311 0 504 -211.5t193 -556.5q0 -139 -28.5 -255.5t-74 -196.5t-108.5 -142.5t-127.5 -98.5t-135 -59.5t-126 -31.5t-105.5 -8q-322 0 -510 212t-188 576zM336 725q0 -264 135 -430t350 -166q223 0 355.5 167.5t132.5 448.5 q0 265 -132 425.5t-350 160.5q-227 0 -359 -162.5t-132 -443.5zM543 1604v204h186v-204h-186zM915 1604v204h187v-204h-187z" />
<glyph unicode="&#xd7;" horiz-adv-x="1368" d="M176 1063l111 111l397 -398l397 398l113 -111l-397 -397l393 -396l-111 -110l-393 395l-397 -395l-111 110l395 396z" />
<glyph unicode="&#xd8;" horiz-adv-x="1642" d="M119 55l145 168q-141 201 -141 516q0 355 194.5 563.5t511.5 208.5q258 0 435 -145l129 147l120 -108l-137 -158q150 -202 150 -504q0 -139 -28.5 -255.5t-74 -196.5t-108.5 -142.5t-127.5 -98.5t-135 -59.5t-126 -31.5t-105.5 -8q-269 0 -444 149l-133 -153zM338 725 q0 -195 74 -334l723 826q-123 114 -306 114q-227 0 -359 -162.5t-132 -443.5zM510 254q128 -125 313 -125q223 0 355.5 167.5t132.5 448.5q0 197 -76 340z" />
<glyph unicode="&#xd9;" horiz-adv-x="1536" d="M205 444v1033h203v-1014q0 -158 95 -242t275 -84q80 0 155.5 26t117.5 70q77 77 77 273v971h203v-1002q0 -127 -30 -217t-95 -156q-72 -73 -185.5 -112t-254.5 -39q-262 0 -411.5 131.5t-149.5 361.5zM500 1864h239l135 -279h-145z" />
<glyph unicode="&#xda;" horiz-adv-x="1536" d="M205 444v1033h203v-1014q0 -158 95 -242t275 -84q80 0 155.5 26t117.5 70q77 77 77 273v971h203v-1002q0 -127 -30 -217t-95 -156q-72 -73 -185.5 -112t-254.5 -39q-262 0 -411.5 131.5t-149.5 361.5zM668 1585l133 279h235l-219 -279h-149z" />
<glyph unicode="&#xdb;" horiz-adv-x="1536" d="M205 444v1033h203v-1014q0 -158 95 -242t275 -84q80 0 155.5 26t117.5 70q77 77 77 273v971h203v-1002q0 -127 -30 -217t-95 -156q-72 -73 -185.5 -112t-254.5 -39q-262 0 -411.5 131.5t-149.5 361.5zM453 1585l217 279h190l225 -279h-202l-111 170l-113 -170h-206z" />
<glyph unicode="&#xdc;" horiz-adv-x="1536" d="M205 444v1033h203v-1014q0 -158 95 -242t275 -84q80 0 155.5 26t117.5 70q77 77 77 273v971h203v-1002q0 -127 -30 -217t-95 -156q-72 -73 -185.5 -112t-254.5 -39q-262 0 -411.5 131.5t-149.5 361.5zM489 1604v204h187v-204h-187zM862 1604v204h187v-204h-187z" />
<glyph unicode="&#xdd;" horiz-adv-x="1429" d="M84 1477h227l396 -666l413 666h228l-539 -871v-606h-203v598zM614 1585l134 279h235l-219 -279h-150z" />
<glyph unicode="&#xde;" horiz-adv-x="1429" d="M215 0v1477h201v-299h395q215 0 350 -122.5t135 -316.5q0 -204 -141 -321t-387 -117h-352v-301h-201zM416 477h299q182 0 268 62t86 194q0 135 -81.5 200.5t-248.5 65.5h-323v-522z" />
<glyph unicode="&#xdf;" d="M156 0v1116q0 185 109.5 287t307.5 102q197 0 321 -100t124 -258q0 -236 -217 -305q40 -18 65.5 -32t66.5 -48.5t65.5 -75t43.5 -109t19 -153.5q0 -203 -96 -326t-254 -123q-97 0 -168 48.5t-105 136.5q-13 38 -16.5 70t-3.5 94h139q9 -205 148 -205q87 0 126 71t39 230 q0 69 -6 117.5t-24 95.5t-50 75.5t-86 46.5t-129 19v141q136 3 196 55.5t60 168.5q0 109 -64.5 165t-188.5 56q-140 0 -196 -65t-56 -226v-1069h-170z" />
<glyph unicode="&#xe0;" horiz-adv-x="1087" d="M92 299q0 60 24.5 119.5t67.5 103.5q54 56 133.5 86.5t202.5 42.5q110 12 145.5 25.5t82.5 62.5q-1 92 -40.5 123t-152.5 31q-117 0 -182.5 -37t-100.5 -123l-141 76q10 25 18 41.5t25.5 43t36.5 44.5t51.5 39t71 33.5t93.5 21t120 8.5q77 0 138 -12t99.5 -29t66 -46 t40.5 -51.5t20 -58t8 -53.5t1 -49l-2 -495q0 -94 12 -115t67 -22v-117q-76 -23 -108 -23q-38 0 -66 13t-42.5 31.5t-23 47t-10.5 52t-2 55.5q-31 -38 -55.5 -64t-68 -61.5t-98.5 -54.5t-117 -19q-134 0 -224 94.5t-90 235.5zM272 297q0 -83 53 -135.5t138 -52.5 q110 0 194 81q51 50 71 105.5t20 150.5v164q-55 -42 -88.5 -55.5t-120.5 -28.5t-134 -36.5t-81 -61.5q-52 -58 -52 -131zM274 1399h240l135 -279h-145z" />
<glyph unicode="&#xe1;" horiz-adv-x="1087" d="M92 299q0 60 24.5 119.5t67.5 103.5q54 56 133.5 86.5t202.5 42.5q110 12 145.5 25.5t82.5 62.5q-1 92 -40.5 123t-152.5 31q-117 0 -182.5 -37t-100.5 -123l-141 76q10 25 18 41.5t25.5 43t36.5 44.5t51.5 39t71 33.5t93.5 21t120 8.5q77 0 138 -12t99.5 -29t66 -46 t40.5 -51.5t20 -58t8 -53.5t1 -49l-2 -495q0 -94 12 -115t67 -22v-117q-76 -23 -108 -23q-38 0 -66 13t-42.5 31.5t-23 47t-10.5 52t-2 55.5q-31 -38 -55.5 -64t-68 -61.5t-98.5 -54.5t-117 -19q-134 0 -224 94.5t-90 235.5zM272 297q0 -83 53 -135.5t138 -52.5 q110 0 194 81q51 50 71 105.5t20 150.5v164q-55 -42 -88.5 -55.5t-120.5 -28.5t-134 -36.5t-81 -61.5q-52 -58 -52 -131zM442 1120l133 279h236l-219 -279h-150z" />
<glyph unicode="&#xe2;" horiz-adv-x="1087" d="M92 299q0 60 24.5 119.5t67.5 103.5q54 56 133.5 86.5t202.5 42.5q110 12 145.5 25.5t82.5 62.5q-1 92 -40.5 123t-152.5 31q-117 0 -182.5 -37t-100.5 -123l-141 76q10 25 18 41.5t25.5 43t36.5 44.5t51.5 39t71 33.5t93.5 21t120 8.5q77 0 138 -12t99.5 -29t66 -46 t40.5 -51.5t20 -58t8 -53.5t1 -49l-2 -495q0 -94 12 -115t67 -22v-117q-76 -23 -108 -23q-38 0 -66 13t-42.5 31.5t-23 47t-10.5 52t-2 55.5q-31 -38 -55.5 -64t-68 -61.5t-98.5 -54.5t-117 -19q-134 0 -224 94.5t-90 235.5zM227 1120l217 279h191l225 -279h-203l-110 170 l-113 -170h-207zM272 297q0 -83 53 -135.5t138 -52.5q110 0 194 81q51 50 71 105.5t20 150.5v164q-55 -42 -88.5 -55.5t-120.5 -28.5t-134 -36.5t-81 -61.5q-52 -58 -52 -131z" />
<glyph unicode="&#xe3;" horiz-adv-x="1087" d="M92 299q0 60 24.5 119.5t67.5 103.5q54 56 133.5 86.5t202.5 42.5q110 12 145.5 25.5t82.5 62.5q-1 92 -40.5 123t-152.5 31q-117 0 -182.5 -37t-100.5 -123l-141 76q10 25 18 41.5t25.5 43t36.5 44.5t51.5 39t71 33.5t93.5 21t120 8.5q77 0 138 -12t99.5 -29t66 -46 t40.5 -51.5t20 -58t8 -53.5t1 -49l-2 -495q0 -94 12 -115t67 -22v-117q-76 -23 -108 -23q-38 0 -66 13t-42.5 31.5t-23 47t-10.5 52t-2 55.5q-31 -38 -55.5 -64t-68 -61.5t-98.5 -54.5t-117 -19q-134 0 -224 94.5t-90 235.5zM209 1145q-3 107 57.5 167t149.5 60 q62 0 151 -47l29 -14q51 -23 80 -23q34 0 50 19.5t22 66.5h131q-3 -107 -54 -167t-139 -60q-67 0 -151 47l-37 20q-49 25 -82 25q-32 0 -53.5 -25t-20.5 -69h-133zM272 297q0 -83 53 -135.5t138 -52.5q110 0 194 81q51 50 71 105.5t20 150.5v164q-55 -42 -88.5 -55.5 t-120.5 -28.5t-134 -36.5t-81 -61.5q-52 -58 -52 -131z" />
<glyph unicode="&#xe4;" horiz-adv-x="1087" d="M92 299q0 60 24.5 119.5t67.5 103.5q54 56 133.5 86.5t202.5 42.5q110 12 145.5 25.5t82.5 62.5q-1 92 -40.5 123t-152.5 31q-117 0 -182.5 -37t-100.5 -123l-141 76q10 25 18 41.5t25.5 43t36.5 44.5t51.5 39t71 33.5t93.5 21t120 8.5q77 0 138 -12t99.5 -29t66 -46 t40.5 -51.5t20 -58t8 -53.5t1 -49l-2 -495q0 -94 12 -115t67 -22v-117q-76 -23 -108 -23q-38 0 -66 13t-42.5 31.5t-23 47t-10.5 52t-2 55.5q-31 -38 -55.5 -64t-68 -61.5t-98.5 -54.5t-117 -19q-134 0 -224 94.5t-90 235.5zM264 1139v204h187v-204h-187zM272 297 q0 -83 53 -135.5t138 -52.5q110 0 194 81q51 50 71 105.5t20 150.5v164q-55 -42 -88.5 -55.5t-120.5 -28.5t-134 -36.5t-81 -61.5q-52 -58 -52 -131zM637 1139v204h186v-204h-186z" />
<glyph unicode="&#xe5;" horiz-adv-x="1087" d="M92 299q0 60 24.5 119.5t67.5 103.5q54 56 133.5 86.5t202.5 42.5q110 12 145.5 25.5t82.5 62.5q-1 92 -40.5 123t-152.5 31q-117 0 -182.5 -37t-100.5 -123l-141 76q10 25 18 41.5t25.5 43t36.5 44.5t51.5 39t71 33.5t93.5 21t120 8.5q77 0 138 -12t99.5 -29t66 -46 t40.5 -51.5t20 -58t8 -53.5t1 -49l-2 -495q0 -94 12 -115t67 -22v-117q-76 -23 -108 -23q-38 0 -66 13t-42.5 31.5t-23 47t-10.5 52t-2 55.5q-31 -38 -55.5 -64t-68 -61.5t-98.5 -54.5t-117 -19q-134 0 -224 94.5t-90 235.5zM272 297q0 -83 53 -135.5t138 -52.5 q110 0 194 81q51 50 71 105.5t20 150.5v164q-55 -42 -88.5 -55.5t-120.5 -28.5t-134 -36.5t-81 -61.5q-52 -58 -52 -131zM365 1264q0 74 54 126t130 52q72 0 124 -53.5t52 -128.5q0 -77 -52.5 -131t-127.5 -54t-127.5 55.5t-52.5 133.5zM442 1264q0 -47 30.5 -80t74.5 -33 t75 32t31 77q0 46 -31 77t-75 31q-43 0 -74 -30.5t-31 -73.5z" />
<glyph unicode="&#xe6;" horiz-adv-x="1748" d="M106 297q0 131 89 223q54 54 128.5 82.5t194.5 40.5q114 12 153 27t91 67q3 83 -36.5 123.5t-156.5 40.5q-114 0 -182 -39.5t-100 -124.5l-144 74q9 24 15 38.5t22 41.5t34.5 44.5t51 39t71.5 34.5t97 22t127 9q135 0 208 -28t130 -101q74 69 148 100t167 31 q188 0 309.5 -141.5t121.5 -359.5q0 -32 -5 -86h-702q4 -101 26 -162t70 -109q72 -75 183 -75q103 0 171.5 58t98.5 163l141 -68q-16 -36 -30.5 -63t-51.5 -74t-78.5 -77.5t-110.5 -54.5t-149 -24q-144 0 -237.5 67t-161.5 206q-21 -32 -32.5 -48t-37.5 -50t-46 -53.5 t-52.5 -45.5t-63 -40.5t-71 -25t-82.5 -10.5q-141 0 -229.5 91.5t-88.5 236.5zM287 293q0 -82 52 -133t138 -51q109 0 193 77q49 47 70.5 107t21.5 151v164q-60 -43 -97.5 -58t-123.5 -30q-56 -10 -97.5 -25t-79 -40.5t-57.5 -66t-20 -95.5zM940 592h524q-3 64 -18 115.5 t-35 83.5t-48.5 55.5t-51 34t-49.5 17t-38 7t-22 0.5q-76 0 -136.5 -40.5t-92.5 -114.5q-25 -57 -33 -158z" />
<glyph unicode="&#xe7;" horiz-adv-x="1087" d="M111 512q0 229 132.5 378.5t336.5 149.5q76 0 140.5 -22t104.5 -53.5t70.5 -73t45 -74.5t20.5 -63l-142 -68q-29 106 -89.5 157.5t-156.5 51.5q-136 0 -210 -100.5t-74 -286.5q0 -114 23 -187.5t75 -127.5q84 -87 201 -87q194 0 260 213l129 -69q-4 -25 -17.5 -56 t-43.5 -70.5t-70.5 -71.5t-105.5 -55.5t-142 -25.5l-31 -92q82 -11 127 -50.5t45 -100.5q0 -83 -79.5 -135t-208.5 -52q-79 0 -146 13l12 116q74 -4 93 -4q161 0 161 76q0 23 -14 37.5t-42.5 20t-46.5 6.5t-52 1l51 177q-162 38 -259 181t-97 347z" />
<glyph unicode="&#xe8;" horiz-adv-x="1085" d="M100 504q0 236 127.5 385t329.5 149q186 0 308 -137t122 -344q0 -22 -4 -108h-704q3 -70 19 -126.5t37 -91.5t51 -60.5t54 -37.5t53.5 -18.5t42.5 -7.5t27 -1q40 0 75.5 10t59.5 22.5t47 36.5t35 39.5t26 44t17.5 37.5t12.5 32l137 -68q-29 -63 -50.5 -96t-56.5 -68 q-130 -127 -317 -127q-201 0 -325 148.5t-124 386.5zM274 1399h240l135 -279h-145zM283 586h526q-3 64 -18.5 115.5t-35 83.5t-47.5 55.5t-50 34t-49 17t-37.5 7t-22.5 0.5q-120 0 -189.5 -81t-76.5 -232z" />
<glyph unicode="&#xe9;" horiz-adv-x="1085" d="M100 504q0 236 127.5 385t329.5 149q186 0 308 -137t122 -344q0 -22 -4 -108h-704q3 -70 19 -126.5t37 -91.5t51 -60.5t54 -37.5t53.5 -18.5t42.5 -7.5t27 -1q40 0 75.5 10t59.5 22.5t47 36.5t35 39.5t26 44t17.5 37.5t12.5 32l137 -68q-29 -63 -50.5 -96t-56.5 -68 q-130 -127 -317 -127q-201 0 -325 148.5t-124 386.5zM283 586h526q-3 64 -18.5 115.5t-35 83.5t-47.5 55.5t-50 34t-49 17t-37.5 7t-22.5 0.5q-120 0 -189.5 -81t-76.5 -232zM442 1120l133 279h236l-219 -279h-150z" />
<glyph unicode="&#xea;" horiz-adv-x="1085" d="M100 504q0 236 127.5 385t329.5 149q186 0 308 -137t122 -344q0 -22 -4 -108h-704q3 -70 19 -126.5t37 -91.5t51 -60.5t54 -37.5t53.5 -18.5t42.5 -7.5t27 -1q40 0 75.5 10t59.5 22.5t47 36.5t35 39.5t26 44t17.5 37.5t12.5 32l137 -68q-29 -63 -50.5 -96t-56.5 -68 q-130 -127 -317 -127q-201 0 -325 148.5t-124 386.5zM227 1120l217 279h191l225 -279h-203l-110 170l-113 -170h-207zM283 586h526q-3 64 -18.5 115.5t-35 83.5t-47.5 55.5t-50 34t-49 17t-37.5 7t-22.5 0.5q-120 0 -189.5 -81t-76.5 -232z" />
<glyph unicode="&#xeb;" horiz-adv-x="1085" d="M100 504q0 236 127.5 385t329.5 149q186 0 308 -137t122 -344q0 -22 -4 -108h-704q3 -70 19 -126.5t37 -91.5t51 -60.5t54 -37.5t53.5 -18.5t42.5 -7.5t27 -1q40 0 75.5 10t59.5 22.5t47 36.5t35 39.5t26 44t17.5 37.5t12.5 32l137 -68q-29 -63 -50.5 -96t-56.5 -68 q-130 -127 -317 -127q-201 0 -325 148.5t-124 386.5zM264 1139v204h187v-204h-187zM283 586h526q-3 64 -18.5 115.5t-35 83.5t-47.5 55.5t-50 34t-49 17t-37.5 7t-22.5 0.5q-120 0 -189.5 -81t-76.5 -232zM637 1139v204h186v-204h-186z" />
<glyph unicode="&#xec;" horiz-adv-x="555" d="M-10 1399h239l136 -279h-146zM193 0v1012h172v-1012h-172z" />
<glyph unicode="&#xed;" horiz-adv-x="555" d="M193 0v1012h172v-1012h-172zM193 1120l133 279h235l-219 -279h-149z" />
<glyph unicode="&#xee;" horiz-adv-x="555" d="M-39 1120l217 279h191l225 -279h-203l-110 170l-113 -170h-207zM193 0v1012h172v-1012h-172z" />
<glyph unicode="&#xef;" horiz-adv-x="555" d="M-2 1139v204h186v-204h-186zM193 0v1012h172v-1012h-172zM371 1139v204h186v-204h-186z" />
<glyph unicode="&#xf0;" d="M135 508q0 149 59.5 271.5t164 192.5t231.5 70q105 0 227 -75q-8 43 -59 115t-129 141l-283 -123l-45 104l225 99h-2q-74 49 -159 81l65 99q115 -26 250 -115l258 111l45 -105l-203 -86q64 -58 123 -135q30 -38 57.5 -89t57 -126t47.5 -175.5t18 -209.5q0 -308 -153 -455 q-60 -58 -146.5 -92.5t-173.5 -34.5q-209 0 -342 151t-133 386zM317 510q0 -186 80.5 -288.5t225.5 -102.5q127 0 203.5 107t76.5 286q0 180 -79.5 282.5t-219.5 102.5q-137 0 -212 -101.5t-75 -285.5z" />
<glyph unicode="&#xf1;" d="M205 0v1012h172v-181q142 207 330 207q137 0 222 -93t85 -243v-702h-172v651q0 114 -55 177t-154 63q-112 0 -184 -71t-72 -181v-639h-172zM274 1145q-3 107 57.5 167t149.5 60q63 0 152 -47l29 -14q51 -23 79 -23q34 0 50 19.5t22 66.5h131q-3 -107 -53.5 -167 t-138.5 -60q-68 0 -152 47l-37 20q-49 25 -82 25q-32 0 -53 -25t-20 -69h-134z" />
<glyph unicode="&#xf2;" d="M137 510q0 232 131 380t336 148q209 0 342 -146t133 -376q0 -250 -130 -398.5t-347 -148.5q-206 0 -335.5 151t-129.5 390zM317 500q0 -183 78 -283t223 -100q131 0 206 103t75 284q0 197 -81.5 293t-215.5 96t-209.5 -101.5t-75.5 -291.5zM340 1399h240l135 -279h-146z " />
<glyph unicode="&#xf3;" d="M137 510q0 232 131 380t336 148q209 0 342 -146t133 -376q0 -250 -130 -398.5t-347 -148.5q-206 0 -335.5 151t-129.5 390zM317 500q0 -183 78 -283t223 -100q131 0 206 103t75 284q0 197 -81.5 293t-215.5 96t-209.5 -101.5t-75.5 -291.5zM508 1120l133 279h236 l-220 -279h-149z" />
<glyph unicode="&#xf4;" d="M137 510q0 232 131 380t336 148q209 0 342 -146t133 -376q0 -250 -130 -398.5t-347 -148.5q-206 0 -335.5 151t-129.5 390zM293 1120l217 279h190l226 -279h-203l-111 170l-112 -170h-207zM317 500q0 -183 78 -283t223 -100q131 0 206 103t75 284q0 197 -81.5 293 t-215.5 96t-209.5 -101.5t-75.5 -291.5z" />
<glyph unicode="&#xf5;" d="M137 510q0 232 131 380t336 148q209 0 342 -146t133 -376q0 -250 -130 -398.5t-347 -148.5q-206 0 -335.5 151t-129.5 390zM274 1145q-3 107 57.5 167t149.5 60q63 0 152 -47l29 -14q51 -23 79 -23q34 0 50 19.5t22 66.5h131q-3 -107 -53.5 -167t-138.5 -60 q-68 0 -152 47l-37 20q-49 25 -82 25q-32 0 -53 -25t-20 -69h-134zM317 500q0 -183 78 -283t223 -100q131 0 206 103t75 284q0 197 -81.5 293t-215.5 96t-209.5 -101.5t-75.5 -291.5z" />
<glyph unicode="&#xf6;" d="M137 510q0 232 131 380t336 148q209 0 342 -146t133 -376q0 -250 -130 -398.5t-347 -148.5q-206 0 -335.5 151t-129.5 390zM317 500q0 -183 78 -283t223 -100q131 0 206 103t75 284q0 197 -81.5 293t-215.5 96t-209.5 -101.5t-75.5 -291.5zM330 1139v204h186v-204h-186z M702 1139v204h187v-204h-187z" />
<glyph unicode="&#xf7;" horiz-adv-x="1368" d="M135 588v157h1098v-157h-1098zM582 256q0 41 29.5 69.5t70.5 28.5t69.5 -28t28.5 -68q0 -41 -28.5 -70.5t-69.5 -29.5t-70.5 29t-29.5 69zM582 1081q0 38 29 66.5t69 28.5q41 0 69.5 -29t28.5 -70q0 -40 -28 -69t-68 -29q-41 0 -70.5 29.5t-29.5 72.5z" />
<glyph unicode="&#xf8;" d="M104 35l125 143q-88 141 -88 332q0 232 131 380t336 148q164 0 285 -94l115 131l106 -98l-123 -141q92 -131 92 -320q0 -250 -130 -398.5t-347 -148.5q-161 0 -280 99l-113 -129zM322 500q0 -99 26 -185l445 512q-72 66 -187 66q-134 0 -209 -101.5t-75 -291.5zM430 186 q72 -69 193 -69q131 0 205.5 103t74.5 284q0 115 -31 194z" />
<glyph unicode="&#xf9;" d="M203 299v713h172v-637q0 -256 203 -256q109 0 186.5 79t77.5 191v623h172v-1012h-176v178q-18 -28 -32 -47t-45.5 -53.5t-63 -55.5t-79 -38t-98.5 -17q-143 0 -230 91.5t-87 240.5zM340 1399h240l135 -279h-146z" />
<glyph unicode="&#xfa;" d="M203 299v713h172v-637q0 -256 203 -256q109 0 186.5 79t77.5 191v623h172v-1012h-176v178q-18 -28 -32 -47t-45.5 -53.5t-63 -55.5t-79 -38t-98.5 -17q-143 0 -230 91.5t-87 240.5zM508 1120l133 279h236l-220 -279h-149z" />
<glyph unicode="&#xfb;" d="M203 299v713h172v-637q0 -256 203 -256q109 0 186.5 79t77.5 191v623h172v-1012h-176v178q-18 -28 -32 -47t-45.5 -53.5t-63 -55.5t-79 -38t-98.5 -17q-143 0 -230 91.5t-87 240.5zM293 1120l217 279h190l226 -279h-203l-111 170l-112 -170h-207z" />
<glyph unicode="&#xfc;" d="M203 299v713h172v-637q0 -256 203 -256q109 0 186.5 79t77.5 191v623h172v-1012h-176v178q-18 -28 -32 -47t-45.5 -53.5t-63 -55.5t-79 -38t-98.5 -17q-143 0 -230 91.5t-87 240.5zM330 1139v204h186v-204h-186zM702 1139v204h187v-204h-187z" />
<glyph unicode="&#xfd;" horiz-adv-x="980" d="M78 1012h162l264 -791l235 791h164l-325 -1051l-17 -57q-11 -37 -17 -56t-17 -50t-20 -47t-24 -40t-30 -36t-37 -27t-47 -22t-57 -12t-70 -5q-44 0 -117 8v143q71 -12 113 -12q82 0 116 39.5t78 187.5zM389 1120l133 279h236l-219 -279h-150z" />
<glyph unicode="&#xfe;" d="M221 -391v1868h164v-711q18 44 32.5 73.5t43 69.5t61.5 64t85.5 41.5t115.5 17.5q166 0 266.5 -142.5t100.5 -377.5q0 -243 -105.5 -391t-277.5 -148q-65 0 -116.5 20.5t-89.5 62t-61.5 79t-52.5 96.5v-622h-166zM385 500q0 -175 77 -279t206 -104q118 0 180.5 102 t62.5 293q0 180 -62 277.5t-177 97.5q-135 0 -211 -102t-76 -285z" />
<glyph unicode="&#xff;" horiz-adv-x="980" d="M78 1012h162l264 -791l235 791h164l-325 -1051l-17 -57q-11 -37 -17 -56t-17 -50t-20 -47t-24 -40t-30 -36t-37 -27t-47 -22t-57 -12t-70 -5q-44 0 -117 8v143q71 -12 113 -12q82 0 116 39.5t78 187.5zM211 1139v204h186v-204h-186zM584 1139v204h186v-204h-186z" />
<glyph unicode="&#x152;" horiz-adv-x="2197" d="M98 721q0 180 53 327t147.5 243.5t225.5 147t285 46.5l72 -4l143 -4h1071l-61 -170h-658v-461h604v-172h-604v-500h662l61 -172h-962q-24 0 -172 -4q-152 -4 -179 -4q-317 0 -502.5 196.5t-185.5 530.5zM332 733q0 -296 151 -450q67 -69 150 -93t252 -24l188 4l101 4 v1133q-154 0 -197 2h-70q-170 0 -265.5 -27.5t-160.5 -95.5q-149 -155 -149 -453z" />
<glyph unicode="&#x153;" horiz-adv-x="1746" d="M84 492q0 239 127 392.5t324 153.5q61 0 115.5 -14t89.5 -31.5t70.5 -48t51.5 -49t41 -49.5q48 68 94 106q112 86 256 86q113 0 207.5 -63t149.5 -172t55 -238q0 -45 -6 -116h-666q4 -92 28.5 -160t54 -101t69.5 -52.5t63 -23t47 -3.5q92 0 156.5 57t95.5 164l140 -68 q-12 -27 -20.5 -44.5t-29 -51.5t-41 -57t-54.5 -51.5t-71 -46t-89 -30t-111 -12.5q-56 0 -105.5 14.5t-81 33t-63.5 51t-46 51.5t-36 51q-33 -41 -62.5 -70.5t-73.5 -62.5t-100 -50.5t-120 -17.5q-195 0 -327 150t-132 373zM266 506q0 -180 75 -283.5t204 -103.5 q125 0 194.5 105t69.5 292q0 174 -72 275.5t-196 101.5q-128 0 -201.5 -103.5t-73.5 -283.5zM999 588h486q-1 145 -67 231t-175 86q-22 0 -47 -5t-61.5 -24.5t-65 -51.5t-49 -93.5t-21.5 -142.5z" />
<glyph unicode="&#x178;" horiz-adv-x="1429" d="M84 1477h227l396 -666l413 666h228l-539 -871v-606h-203v598zM436 1604v204h187v-204h-187zM809 1604v204h186v-204h-186z" />
<glyph unicode="&#x2c6;" horiz-adv-x="681" d="M25 1120l217 279h190l225 -279h-202l-111 170l-113 -170h-206z" />
<glyph unicode="&#x2dc;" horiz-adv-x="681" d="M6 1145q-3 107 57.5 167t149.5 60q63 0 152 -47l28 -14q51 -23 80 -23q34 0 50 19.5t22 66.5h131q-3 -107 -54 -167t-139 -60q-67 0 -151 47l-37 20q-49 25 -82 25q-32 0 -53.5 -25t-20.5 -69h-133z" />
<glyph unicode="&#x2000;" horiz-adv-x="953" />
<glyph unicode="&#x2001;" horiz-adv-x="1907" />
<glyph unicode="&#x2002;" horiz-adv-x="953" />
<glyph unicode="&#x2003;" horiz-adv-x="1907" />
<glyph unicode="&#x2004;" horiz-adv-x="635" />
<glyph unicode="&#x2005;" horiz-adv-x="476" />
<glyph unicode="&#x2006;" horiz-adv-x="317" />
<glyph unicode="&#x2007;" horiz-adv-x="317" />
<glyph unicode="&#x2008;" horiz-adv-x="238" />
<glyph unicode="&#x2009;" horiz-adv-x="381" />
<glyph unicode="&#x200a;" horiz-adv-x="105" />
<glyph unicode="&#x2010;" horiz-adv-x="768" d="M102 424v168h566v-168h-566z" />
<glyph unicode="&#x2011;" horiz-adv-x="768" d="M102 424v168h566v-168h-566z" />
<glyph unicode="&#x2012;" horiz-adv-x="768" d="M102 424v168h566v-168h-566z" />
<glyph unicode="&#x2013;" horiz-adv-x="1024" d="M-10 422v182h1044v-182h-1044z" />
<glyph unicode="&#x2014;" horiz-adv-x="2048" d="M-10 422v182h2066v-182h-2066z" />
<glyph unicode="&#x2018;" horiz-adv-x="555" d="M180 928v225q0 197 127 324l58 -60q-42 -67 -55.5 -109.5t-14.5 -119.5h82v-260h-197z" />
<glyph unicode="&#x2019;" horiz-adv-x="555" d="M176 1217v260h201v-287q0 -65 -33.5 -137t-89.5 -125l-61 63q37 62 48.5 103.5t12.5 122.5h-78z" />
<glyph unicode="&#x201a;" horiz-adv-x="555" d="M176 -248q51 59 66.5 113t13.5 135h-76v262h201v-272q0 -101 -43.5 -184t-122.5 -134z" />
<glyph unicode="&#x201c;" horiz-adv-x="980" d="M164 934v215q0 204 127 328l63 -56q-44 -68 -57.5 -111.5t-13.5 -119.5h82v-256h-201zM618 934v221q0 176 134 322l57 -54q-36 -58 -50.5 -108.5t-15.5 -126.5h74v-254h-199z" />
<glyph unicode="&#x201d;" horiz-adv-x="980" d="M164 1221v256h201v-244q0 -81 -35 -159t-99 -140l-59 55q40 58 53 104t15 128h-76zM616 1221v256h201v-230q0 -177 -127 -313l-59 57q39 62 52.5 107.5t16.5 122.5h-84z" />
<glyph unicode="&#x201e;" horiz-adv-x="980" d="M164 -248q54 69 68.5 117.5t11.5 130.5h-76v262h201v-272q0 -201 -164 -318zM616 -248q55 71 68.5 119t11.5 129h-75v262h198v-272q0 -101 -42.5 -183.5t-121.5 -134.5z" />
<glyph unicode="&#x2022;" horiz-adv-x="716" d="M104 717q0 105 74.5 179.5t179.5 74.5t179.5 -74.5t74.5 -179.5q0 -104 -75 -178t-179 -74t-179 74t-75 178z" />
<glyph unicode="&#x2026;" horiz-adv-x="1748" d="M190 0v260h201v-260h-201zM774 0v258h201v-258h-201zM1358 0v258h201v-258h-201z" />
<glyph unicode="&#x202f;" horiz-adv-x="381" />
<glyph unicode="&#x2039;" horiz-adv-x="661" d="M106 567l271 500h178l-270 -498l270 -497h-178z" />
<glyph unicode="&#x203a;" horiz-adv-x="661" d="M106 72l271 497l-271 498h179l270 -500l-270 -495h-179z" />
<glyph unicode="&#x205f;" horiz-adv-x="476" />
<glyph unicode="&#x20ac;" horiz-adv-x="1153" d="M37 504l26 127h121v26q0 35 4 97h-147l27 127h135q42 248 166 391t303 143q83 0 152 -27t110 -64.5t71.5 -84.5t42.5 -80t17 -59l-131 -56q-11 40 -30.5 77.5t-49.5 72.5t-75.5 56.5t-98.5 21.5q-119 0 -195 -105t-102 -286h631l-27 -127h-614q0 -10 -1 -31t-1 -31 t1 -30.5t1 -30.5h555l-27 -127h-518q13 -98 41.5 -172.5t60.5 -114.5t70 -65t65 -32t52 -7q52 0 99 20.5t81 55t57.5 69t40.5 72.5l119 -84q-16 -37 -31.5 -66t-49.5 -72t-73.5 -71t-102.5 -49t-138 -21q-99 0 -179 36.5t-129.5 91t-86.5 130.5t-54 141t-28 138h-160z" />
<glyph unicode="&#x2122;" horiz-adv-x="2048" d="M244 1356v121h665v-121h-266v-694h-135v694h-264zM1001 662v815h201l205 -652l199 652h196v-815h-125v684l-209 -684h-122l-220 694v-694h-125z" />
<glyph unicode="&#xe000;" horiz-adv-x="1013" d="M0 0v1014h1014v-1014h-1014z" />
</font>
</defs>
</svg>
